<?xml version="1.0" encoding="utf-8"?>
<!-- Generator: Adobe Illustrator 16.0.4, SVG Export Plug-In . SVG Version: 6.00 Build 0)  -->
<!DOCTYPE svg PUBLIC "-//W3C//DTD SVG 1.1//EN" "http://www.w3.org/Graphics/SVG/1.1/DTD/svg11.dtd">
<svg version="1.1" id="Layer_1" xmlns="http://www.w3.org/2000/svg" xmlns:xlink="http://www.w3.org/1999/xlink" x="0px" y="0px"
	 width="504px" height="360px" viewBox="0 0 504 360" enable-background="new 0 0 504 360" xml:space="preserve">
<g transform="translate(0.000000,360.000000) scale(0.100000,-0.100000)">
	<path d="M977.002,3452.002C966.001,3440,963.999,3430,970,3423.999c17.998-17.998,11.001-175-8.999-181.997
		C955,3240,950,3232.998,950,3226.001c0-8.003-20-16.001-52.002-18.999c-53.999-7.002-67.998,0.996-73.999,40.996
		c-1.997,8.003-5,16.001-7.998,19.004C812.998,3270,818.999,3285,830,3300c17.998,25,17.998,27.998,2.002,26.001
		c-35-2.002-56.001-77.002-26.001-93.999C827.998,3220,815,3200,785,3200c-15,0-42.002,17.002-70,43.999
		c-57.002,53.999-68.999,43.003-15-15c63.999-68.999,50-147.998-17.002-96.001L655,3155l18.999-30
		c10-17.002,27.002-38.999,37.002-51.001c21.001-21.997,16.001-36.001-8.003-26.997c-11.997,5-13.999,0-8.999-24.004
		c5-21.997,2.002-33.999-10-43.999c-13.999-11.997-18.999-10-35,10c-11.001,13.003-21.997,21.001-26.001,18.003
		c-8.999-10,24.004-55,47.002-62.002c33.999-11.001,22.998-27.998-13.999-22.002c-23.003,4.004-36.001,1.001-38.999-6.997
		c-3.003-8.003,6.997-12.002,30-13.003c18.999-0.996,40-6.997,46.997-12.998c8.003-8.999,6.001-11.001-10-6.001
		c-11.997,3.999-33.999,1.001-47.998-5c-20-10-28.999-10-38.003-1.001c-15.996,16.001-27.998,15-27.998-2.998
		c0-7.998,6.001-15,12.998-16.001c6.001,0,30-1.001,52.002-1.997c26.001-1.001,38.999-6.001,37.002-14.004
		c-1.001-6.997,3.999-12.998,10-12.998c8.999,0,7.998-3.999-2.002-10c-12.998-8.999-12.998-11.001,0-18.999
		c8.999-6.001,18.999-6.001,26.001,0c16.997,13.999,56.001,1.997,86.997-27.002C807.002,2761.001,825,2750,832.002,2750
		c6.997,0,20-6.001,27.998-12.998c15-12.002,22.002-22.002,57.998-79.004c18.003-28.999,38.003-37.998,29.004-13.999
		c-3.003,8.003,0.996,20,10,28.003c13.999,10.996,15.996,10,10.996-14.004c-3.999-20-0.996-27.998,8.003-27.998
		c7.998,0,13.999,7.002,13.999,15s6.001,15,13.999,15c8.999,0,12.002-7.002,8.999-20c-2.998-11.001-11.997-20-18.999-20
		c-16.997,0-16.997-2.002-1.997-33.999c10-23.999,11.997-23.999,23.999-8.003c6.997,9.004,10,27.002,6.997,40
		c-2.998,12.002,1.001,30,8.003,39.004c10,11.997,11.001,15,1.001,8.999c-9.004-6.001-11.001,0-7.002,22.998
		c3.999,23.003,1.001,31.001-8.999,31.001c-8.003,0-16.001,7.002-20,15c-3.003,8.999,0,15,7.998,15c8.003,0,17.002-7.002,20-16.001
		c3.999-10,13.999-13.999,25-11.001c22.002,5,51.001-8.999,51.001-26.997c0-7.002-12.998-25-30-41.001
		c-32.998-31.001-38.999-60-15-68.999c17.998-7.002,20-53.003,2.998-58.999c-6.997-2.002-20.996,0-31.997,5
		c-28.999,15-38.003-4.004-22.002-43.003c35-86.001,28.999-152.998-12.998-141.997c-26.001,6.997-37.002-16.001-15-31.001
		c8.999-7.002,13.999-17.002,11.001-23.003c-8.003-11.997,55.996-75.996,65.996-66.997c4.004,3.999,7.002,0,7.002-10
		c0-8.999-3.999-15-8.999-12.002c-18.999,12.002-18.999-23.999,0-46.997c10-14.004,18.999-32.002,18.999-41.001
		c0-22.002-27.998-32.002-51.001-18.003c-11.997,8.003-20,8.003-23.999,2.002s-11.001-7.002-17.002-3.999
		c-6.997,3.999-1.997,11.001,10,17.998c29.004,16.001,15,32.002-35,40c-30.996,3.999-42.998,3.003-42.998-6.001
		c0-6.997-6.001-3.999-12.002,7.002c-15.996,27.998-28.999,35-48.999,23.999c-10-5-30-8.999-46.001-10
		c-27.998-1.001-27.998-1.001,4.004-8.999c17.998-3.999,40-13.999,48.999-21.001c8.999-7.998,26.997-11.997,40-11.001
		C913.999,2131.001,922.002,2125,930,2105c12.998-33.999,12.998-35-3.999-35c-8.999,0-12.002,7.998-8.003,25
		c6.001,33.999-13.999,32.002-30-2.002c-17.998-36.997-80.996-51.997-145.996-33.999c-39.004,10-48.003,10-61.001-3.999
		c-12.002-11.001-12.002-17.998-3.003-27.002C685,2021.001,690,2007.002,690,1996.001c0-10,2.998-16.001,7.002-13.003
		c7.998,9.004,51.997-61.997,52.998-85c0-8.999-5-20-10-22.998c-6.001-3.999-8.999-2.998-7.998,2.002
		c0.996,3.999-4.004,18.999-11.001,32.998l-13.999,23.999L697.998,1910c-5.996-16.001-5-26.001,1.001-27.998
		c6.001-2.002,11.001-11.001,10-20c0-11.001-1.997-12.002-6.001-4.004c-10,24.004-32.998,13.003-32.998-16.997
		c0-32.002,7.002-40,67.998-66.001c62.002-27.002,74.004-15.996,78.003,72.998c2.998,79.004,11.001,103.003,25,81.001
		c6.001-10,8.999-11.001,8.999-1.001c0,6.001,5,12.002,10,12.002c6.001,0,10-7.998,10-17.002c0-23.999,21.001-1.997,22.998,24.004
		c1.001,12.998,13.003,25,35,32.998c37.002,12.998,51.001,7.998,33.003-13.999c-8.003-8.999-8.003-16.001-2.002-20
		c5-3.999,13.003-1.001,18.003,6.001c7.998,12.998,10,18.999,11.997,40c1.001,8.999,3.999,8.999,12.002,0.996
		c16.997-16.997-5-65-38.999-85c-66.001-38.999-78.003-87.998-21.001-87.998c16.001,0,28.999-3.999,28.999-10
		c0-17.998,17.998-10,22.998,10c4.004,13.999,0,20-10.996,20c-10,0-24.004,5-32.002,10c-12.002,7.998-11.001,10,7.998,10
		c30,0,62.002-32.998,55-58.999c-3.999-16.997-0.996-20.005,23.003-18.003c21.997,2.002,30,7.998,31.997,26.001
		C1075,1852.002,1062.002,1880,1035,1880c-13.999,0-25,5-25,10c0,6.001,10,7.998,22.998,5c12.002-2.998,40-7.002,62.002-8.999
		c35-3.003,40-7.002,37.002-26.001c-1.001-12.998,2.998-28.999,8.999-37.002c6.997-6.997,8.999-15.996,6.001-20
		c-4.004-2.998,1.997-17.002,12.998-30c15-18.994,17.002-28.994,8.999-52.998c-11.997-34.004-31.001-42.998-63.999-30
		c-20,7.998-30,5-51.001-15c-15-14.004-25-25.996-22.998-27.998c1.997-2.002,16.997-9.004,32.998-15
		c25-11.006,31.001-10,51.001,7.998c12.002,10.996,31.001,20,42.998,20c17.002,0,22.002-5.996,22.002-27.002
		c1.001-27.998,1.001-27.998,15,6.006c21.001,46.992,25,78.994,12.002,76.992c-7.002,0-14.004,4.004-17.002,9.004
		c-2.998,5.996,8.999,10.996,27.002,12.998c23.999,2.002,30,7.002,25.996,17.998c-2.998,9.004,4.004,28.008,16.001,44.004
		c11.001,16.001,21.001,37.998,21.001,47.998c0,21.001,28.999,52.002,48.999,52.002c8.999,0,11.001,11.001,7.002,37.998
		c-7.002,53.003,10,78.003,18.999,26.001c2.998-21.001,10-47.998,13.999-57.998c7.002-18.003,8.999-17.002,26.001,11.001
		c30,50,91.001,67.998,131.001,37.998c17.998-12.998,23.999-8.999,80,47.998c32.998,34.004,73.999,72.002,90,84.004
		c37.998,27.998,26.997,36.997-27.002,22.998c-43.999-12.002-43.999-12.002-77.998,26.001c-21.001,25-35,33.999-38.003,26.001
		c-3.999-9.004-8.999-10-17.998-2.002c-17.002,13.999-7.002,57.002,16.001,62.998c13.999,4.004,18.999,14.004,18.999,38.003
		c0,27.998,12.998,33.999,16.001,7.998c1.001-5,1.997-12.998,2.998-18.999c1.001-12.998,58.003-12.998,66.001,0
		c3.999,6.001,11.001,7.998,16.001,5s25-2.002,43.999,3.999c30,8.003,37.002,7.002,47.998-8.999
		c7.002-10,26.001-22.002,42.002-26.001c17.002-3.999,42.998-12.998,58.999-21.001c33.003-16.997,32.002-38.999-6.997-125.996
		c-30-67.002-51.001-145-73.003-279.004c-6.001-33.994-2.998-40.996,30-73.994c20-20,36.001-44.004,36.001-54.004
		c0-14.004,5-17.002,22.998-12.002c20,5,21.001,4.004,8.003-10.996c-8.999-11.006-12.002-32.002-8.999-61.006
		c3.999-31.992,0-48.994-13.003-66.992c-22.998-30-13.999-43.008,16.001-23.008c28.999,19.004,40,5,22.998-30.996
		c-7.998-17.998-13.999-22.002-18.999-12.998c-13.999,22.998-42.998-5-55-52.998c-7.998-34.004-11.997-39.004-16.001-22.002
		c-7.998,27.998-28.999,23.994-60.996-12.002c-18.003-20-26.001-25-27.002-15c0,22.002,27.998,60,45,60
		c22.002,0,76.001,119.004,81.001,180c5,50.996,3.999,54.004-10,35.996c-8.999-10.996-16.001-25-16.001-30.996s-16.001-25.996-35-45
		s-35-40-35-47.998s-6.001-12.002-15-7.998c-7.998,2.998-15,0.996-15-5c0-7.002-7.002-8.008-17.002-4.004s-30.996,10-47.998,14.004
		c-16.001,3.994-30,12.998-30,20.996s-3.999,20.996-7.998,27.998c-6.001,7.998-2.002,12.002,10,12.002
		c20,0,132.998,77.002,132.998,90.996c0,5,7.002,9.004,15,9.004c17.998,0,18.999-12.002,3.999-27.002
		c-6.997-7.002-6.997-12.998-1.001-17.002c14.004-8.994,55,51.006,46.001,66.006C1811.001,1705,1777.002,1740,1767.002,1740
		c-5,0,0.996-9.004,13.999-19.004c12.998-10.996,21.001-22.998,16.997-26.992c-3.999-4.004-13.999-1.006-22.998,5.996
		c-26.001,22.002-60,2.002-150-84.004c-58.999-57.998-83.999-88.994-78.999-97.998C1557.998,1500,1567.998,1390,1557.998,1390
		c-3.999,0-7.998-7.002-7.998-15s-6.001-15-13.999-15c-31.001,0-67.002-20-60-32.002c20-32.002,3.999-100.996-20-92.002
		c-6.001,2.002-18.999-8.994-28.999-25c-10-16.992-32.002-40-49.004-51.992c-16.997-13.008-27.998-18.008-23.999-11.006
		c12.002,20-1.997,12.998-37.998-17.998c-53.999-47.998-58.003-120-7.002-120c13.003,0,16.001-7.998,13.003-40
		c-2.002-22.002-8.003-42.998-13.003-45.996c-12.998-8.008-11.001-24.004,3.003-24.004c5.996,0,20,7.998,30,17.002
		c12.998,10.996,21.997,12.998,28.999,5.996c6.997-7.002,2.998-18.994-15-37.998c-13.999-15-26.001-30-26.001-32.002
		c0-7.998,37.002,17.998,80,57.002c25,22.998,51.001,45,58.999,49.004c11.001,6.992,11.001,10.996,0,28.994
		s-11.001,26.006-1.001,42.002s10,20-1.997,20c-7.002,0-18.999,7.002-26.001,15c-15,19.004-40,20-40,2.002
		c0-21.006-38.999-52.002-50-41.006c-6.001,6.006,1.001,21.006,20,40c18.999,21.006,27.002,38.008,23.999,52.002
		c-2.998,11.006-1.001,22.998,5,26.006c6.001,3.994,11.001,1.992,11.001-5c0-10,2.998-10,12.002-1.006
		C1428.999,1145,1441.001,1150,1450,1150s11.001-2.998,3.999-7.998c-30-20-21.997-50,11.001-42.002
		c6.001,2.002,27.002,4.004,47.998,4.004c20,0.996,37.002,5,37.002,8.994c0,4.004,6.001,20,15,37.002c16.001,30,20,80,7.002,80
		c-4.004,0-22.002-4.004-40-9.004c-30-8.994-31.001-7.998-22.002,10c8.999,17.002,27.998,24.004,52.998,20
		c4.004,0,8.003,11.006,8.003,26.006c1.997,47.002,3.999,52.998,12.998,50c13.003-2.998,13.003-57.002,1.001-57.002
		c-5,0-2.002-5,7.998-10.996c20-12.002,23.003-66.006,5-116.006c-16.997-45.996-1.997-58.994,49.004-42.998
		c78.999,24.004,85.996,30,80,77.002c-4.004,35.996-2.002,42.002,8.999,32.002c18.999-16.006,16.997-80-3.999-105
		c-17.002-21.006-33.003-27.002-122.002-43.008c-32.998-5.996-52.002-17.998-77.002-45.996c-17.998-20.996-30-42.002-26.997-45.996
		c10-17.002,41.001-9.004,52.998,15c7.002,12.998,33.999,33.994,58.999,45.996c41.001,20.996,50,22.002,90,10.996
		c41.001-10.996,96.001-58.994,98.003-85c0-5.996,7.998-27.998,16.997-50c9.004-20.996,17.002-47.998,16.001-60V825L1830,845.996
		c-15,38.008-36.001,39.004-32.002,3.008C1798.999,845,1795,827.998,1790,810c-7.002-25.996-5-37.998,12.998-65.996
		c29.004-44.004,43.003-38.008,39.004,20c-3.003,50.996,6.997,58.994,31.997,20.996c20-30,20-49.004,1.001-65
		c-7.998-7.002-15-24.004-13.999-39.004V655l10,24.004c5,12.998,20,35.996,31.997,50.996l23.003,27.002l52.998-24.004
		c28.999-13.994,55-22.002,58.003-18.994c6.997,5.996-76.001,65.996-108.003,77.998c-51.997,17.998-56.997,45.996-45,247.002
		c8.003,135,15,172.998,36.001,185.996c7.002,4.004,20,27.998,31.001,52.998c21.001,49.004,37.998,52.002,21.001,2.998
		c-12.002-35-8.003-36.992,30-16.992c15.996,8.994,30,10,35.996,3.994c9.004-8.994,91.001,45,125,84.004
		c21.001,25,22.002,77.002,2.002,103.994c-17.002,23.008-18.999,38.008-2.998,28.008c6.997-4.004,7.998-3.008,3.999,3.994
		s5,22.002,21.001,36.006c15,12.998,25,26.992,20.996,30.996c-8.999,10-67.998-27.002-65-40c3.003-14.004-47.998-75-61.997-75
		c-16.001,0-13.003-22.002,3.999-47.002c13.999-20.996,13.999-23.994-5-42.998c-11.001-10.996-23.999-20.996-30-20.996
		c-5-1.006-13.999-2.002-18.999-3.008c-5,0-13.003-3.994-17.002-8.994c-15-14.004-21.997-6.006-27.998,30.996
		c-11.001,60-10,122.002,1.997,197.002c6.001,39.004,14.004,87.998,18.003,110c2.998,22.002,11.997,52.998,18.999,67.998
		c8.999,17.998,12.998,50,10,88.003c-2.002,31.997,1.001,61.001,6.001,63.999c5,3.999,8.999,0,8.999-7.002
		c1.001-18.999,40,34.004,40,53.003c0,17.998,42.998,86.001,50,80c2.998-2.002,16.001,1.001,28.999,8.999l23.999,12.002
		L2162.002,2035c-17.002,7.998-35,22.002-40,32.002c-14.004,25-8.003,200,6.997,237.998c7.002,17.002,13.999,52.998,16.001,81.001
		c3.999,65,32.998,221.997,46.001,248.999c16.001,32.998-28.999,115-62.002,115c-6.997,0-5,6.001,6.001,13.999
		c25,18.003,35,12.002,35-20c0-35,18.999-30,27.002,7.002c5,26.997,7.998,30,17.998,16.001c6.001-9.004,23.999-19.004,41.001-22.002
		c16.001-3.999,38.999-11.001,51.001-17.002c22.998-11.997,52.998-5,52.998,12.002c0,5-7.002,10-17.002,10
		c-8.999,0-35,11.001-57.998,25c-51.001,28.999-80,82.002-71.001,128.999c3.003,17.002,7.002,38.003,8.999,47.002
		c1.001,7.998,10,22.998,20,32.998c9.004,10,17.002,22.002,17.002,27.002s7.002,8.999,15,8.999c17.002,0,20-16.001,5-25
		s-12.002-61.001,5-75c20-17.002,32.998-5,45,42.002c11.001,36.997,8.999,41.997-13.999,66.997l-25,26.001H2370h78.999l-25-26.001
		c-22.998-25-25-30-13.999-66.997c12.002-47.002,25-59.004,45-42.002c17.002,13.999,20,66.001,5,75s-12.002,25,5,25
		c7.998,0,15-3.999,15-7.998c0-5,8.999-19.004,18.999-31.001c10-12.002,22.002-41.001,25-66.001
		c8.999-57.002-16.001-107.002-68.999-140l-40-23.999l30-2.002c17.002-1.001,37.002-1.997,46.001-1.001
		C2515,2750,2522.002,2636.001,2503.999,2545c-21.997-112.002-31.997-392.998-16.997-512.998c10-87.002,17.998-114.004,48.994-170
		c33.008-61.001,35-70,25-99.004c-6.992-17.998-8.994-37.998-5-43.994c12.002-20,14.004-272.002,2.002-286.006
		c-20-23.994-27.998-12.998-20.996,32.002c5,40.996,3.994,45-16.001,45c-18.003,0-20-2.998-11.001-19.004
		c15.996-30.996,12.002-35.996-10-10.996c-12.002,14.004-17.998,30.996-13.999,42.002c2.998,10-2.002,27.998-10,40
		c-20,27.998-20,42.002-1.001,33.994c17.998-5.996,18.999,7.002,3.999,35c-6.001,12.002-16.997,18.008-25,15
		c-23.999-8.994-16.001,3.008,12.002,17.002l26.997,14.004l-31.997,5.996c-37.002,7.998-72.002,57.998-70,102.002
		c1.997,45,0,50-18.999,71.001c-9.004,10-27.002,31.997-40,47.998c-14.004,18.003-22.002,23.003-22.002,13.003
		c0-18.003-23.999-29.004-45-21.001c-8.999,3.999-15,0-15-10c0-8.999,6.001-16.001,12.998-16.001c7.002,0,5-5-5-11.001
		c-10-5-15-16.001-11.997-23.999c3.999-7.998,1.001-15-5-15s-11.001-7.002-11.001-15s3.999-15,7.998-15
		c16.001,0,52.002,37.002,52.002,53.999c0,8.999,5,16.001,10,16.001c12.998,0,12.998-6.001-2.002-47.002
		C2287.002,1784.004,2282.002,1780,2250,1780c-40,0-80-9.004-80-19.004c0-2.998,22.002-3.994,48.999-2.998
		c27.002,2.002,58.999-2.002,71.001-7.998c20-10.996,22.002-17.998,17.998-72.998c-2.998-45-10-71.006-26.997-92.998l-23.003-32.002
		l40-36.006c22.002-20,45-50.996,52.002-68.994c7.002-17.002,16.001-41.006,21.001-52.002c10-22.998,21.001-287.998,11.997-310
		c-2.998-7.998-10.996-15-18.999-15c-18.999,0-17.998-15.996,1.001-24.004c7.998-2.998,15-10,15-15
		c0-5.996-6.001-7.998-12.998-5.996c-20,7.998-38.003-30.996-28.003-59.004c6.001-12.998,8.003-31.992,6.001-41.992
		c-2.002-11.006-6.001-31.006-10-47.002c-2.998-15-22.002-46.006-42.002-67.998c-31.997-35-35-42.002-20.996-55
		C2285,740.996,2291.001,740.996,2325,755c37.002,15.996,85,12.998,85-4.004c0-5-8.999-6.992-20-3.994s-27.002,2.998-36.001-1.006
		c-13.999-5-13.999-6.992,0-21.992C2362.998,715.996,2370,695.996,2370,680s3.999-30.996,8.999-34.004
		c5-3.994,7.002,12.002,3.999,35c-5,33.008-2.998,41.006,8.003,37.002c7.998-2.998,12.998-10.996,11.001-17.998
		c-1.001-7.002,3.999-22.998,12.998-35.996c17.998-28.008,45-32.002,37.998-6.006c-2.998,12.002,3.003,21.006,19.004,27.998
		c30,13.008,67.998,6.006,67.998-10.996c0-7.998,4.004-15.996,9.004-19.004c3.994-2.998,15.996,65,25,152.002
		c10,86.006,21.992,174.004,26.992,195c9.004,32.998,13.008,192.998,8.008,277.002c-4.004,57.002,0,89.004,20.996,149.004
		c15,45,17.998,66.992,10.996,73.994c-16.992,17.002-13.994,50,5,42.998c9.004-2.998,12.002-1.992,9.004,5
		c-4.004,6.006,2.002,13.008,14.004,16.006c21.992,5,28.994,37.002,10.996,47.998c-5,2.998-7.002,0-4.004-9.004
		c4.004-10-1.992-16.992-20-21.992c-15.996-4.004-22.998-11.006-18.994-18.008c3.994-5.996-1.006-5-10,3.008
		c-22.998,17.998-21.006,53.994,2.998,75.996c10.996,10,20,27.998,20,40.996c0,13.008,5,26.006,10,29.004
		c5.996,4.004,10-5,10-19.004c0-13.994,9.004-35,20-45.996s20-27.002,20-35.996c0-8.008,5-12.002,10-9.004
		c5.996,2.998,10,0.996,10-4.004c0-5.996-4.004-10.996-9.004-10.996c-11.992,0-8.994-299.004,3.008-302.998
		c5-1.006,13.994,12.002,20,30c13.994,40,41.992,73.994,80.996,98.994c40.996,26.006,49.004,34.004,67.998,73.008
		C2920,1542.998,2915,1585,2874.004,1645.996C2835,1705,2817.998,1720,2812.002,1702.002C2810,1695,2804.004,1690,2797.998,1690
		c-5,0-5.996,9.004-2.998,20c7.998,24.004-10,27.002-22.998,2.998c-7.998-12.998-11.006-10.996-17.002,15
		c-2.998,17.998-10.996,32.002-17.002,32.002c-10,0-7.998-17.002,7.002-52.998c5.996-12.998,2.998-16.006-9.004-11.006
		C2727.002,1700,2720,1714.004,2720,1730c0,24.004-20.996,60-35.996,60c-2.002,0-10-15-18.008-32.002
		c-13.994-32.002-13.994-28.994-15,61.001c-0.996,88.003,1.006,96.001,27.002,130c21.006,28.003,27.002,48.003,29.004,91.001
		c2.002,73.999,0.996,72.002,15.996,63.999c10-6.001,10-3.999,0,7.002c-15,15-17.002,38.999-5,38.999
		c5,0,17.998-8.999,31.006-21.001l21.992-21.001l-6.992,53.003c-6.006,46.001-5,51.997,8.994,46.001
		c10-4.004,17.002-3.003,17.002,1.997c0,10-59.004,23.003-70.996,15c-5-2.998-9.004-11.997-9.004-20c0-7.998-4.004-13.999-10-13.999
		c-22.002,0-9.004,37.998,15,43.999c14.004,3.999,25,10,25,15c0,3.999-10.996,13.003-25,18.999c-35,16.001-30.996,40,9.004,57.002
		c30.996,12.998,33.994,17.998,30.996,52.002c-2.998,50.996-15.996,95.996-29.004,105c-7.998,5-6.992,7.998,2.002,7.998
		c7.998,0,10,7.998,6.006,26.001c-4.004,16.997-2.002,28.999,6.992,33.999c10,7.002,10,11.001,0,23.999
		c-8.994,10-10,20-2.998,32.002c7.002,11.997,5,27.998-3.994,50c-16.006,37.998-18.008,57.998-6.006,50
		c15-8.999,11.006,81.997-3.994,95c-17.002,13.999-19.004,41.997-2.002,36.997c17.998-5.996,38.994-78.999,37.002-130
		c-2.002-25.996,0-50,2.998-52.998c2.002-2.998,5.996,16.001,7.002,42.002c0.996,25.996,7.998,53.999,15,61.997
		c10.996,10,11.992,18.999,5,35c-16.006,33.003,5,78.003,33.994,73.999c15-1.997,22.002-10,21.006-23.999
		c0-20,0.996-21.001,32.998-7.998c42.002,17.998,67.998,17.998,105.996-2.002c17.998-8.999,39.004-20,47.002-23.999
		c15-7.002,22.002-90,7.998-90c-5,0-7.998-7.002-7.998-15s7.998-15,17.998-15c22.998,0,55-33.999,57.002-60
		c2.998-37.998,24.004-36.001,37.998,3.999c2.002,5,14.004,6.001,27.998,3.003c17.002-4.004,29.004-18.003,38.008-42.002
		c12.998-37.998,25-43.999,35-18.999c3.994,10,11.992,13.999,21.992,10c12.002-3.999,15-2.002,10,8.999c-2.998,8.999,0,15,8.008,15
		c7.998,0,16.992-16.001,20.996-37.002c4.004-20,12.998-45.996,20.996-56.997c8.008-11.001,14.004-28.003,14.004-38.003
		s5-17.998,10.996-17.998c7.002,0,8.008-7.002,4.004-17.002c-5.996-15.996-12.002-56.997-17.998-130
		c-1.006-11.997,2.002-21.997,7.002-21.997c5,1.001,11.992-5,16.992-12.002c5-7.998,22.002-11.997,42.002-11.001
		c29.004,3.003,35,0,41.006-20.996c5-20,18.994-29.004,65.996-46.001c65.996-22.002,85.996-20,95.996,11.001
		c4.004,11.997,11.006,16.997,21.006,13.999c12.002-5,13.994-1.001,10,13.999c-7.002,27.002,10,35,23.994,12.002
		c7.002-11.001,19.004-17.002,30-15c9.004,2.998,26.006-4.004,37.002-15c11.006-11.001,29.004-23.003,41.006-27.002
		c31.992-10,25-25-11.006-25c-30.996-1.001-32.002-1.001-13.994-15c13.994-11.001,22.998-12.002,32.998-3.999
		c8.994,8.999,12.998,7.998,12.998,0c0-8.003,5.996-8.999,17.998-3.003c9.004,5,37.002,8.003,62.002,7.002
		c55-2.998,77.998,3.999,57.998,16.001c-7.002,5-20.996,6.001-30.996,2.998c-11.006-2.998-16.006-1.001-15,7.002
		c2.002,8.999-7.998,11.997-36.006,10c-31.992-2.002-37.998,0-32.998,12.998c4.004,10,1.006,16.001-7.998,16.001
		c-7.998,0-15,7.998-15,17.998s2.998,13.003,7.998,7.002c4.004-6.001,19.004-16.001,35-22.002L3860,2210v65
		c0,67.002-12.002,115-30,115c-5.996,0-5.996-7.002,2.002-20c15-23.999,3.994-37.002-17.002-20
		c-14.004,12.002-15,8.999-9.004-27.002c4.004-25.996,2.002-42.998-5-46.997c-6.992-5-10.996,1.997-10.996,17.998
		c0,13.999-5,28.003-10,31.001c-5.996,3.999-7.998,10-5,15c9.004,13.999-10.996,20-44.004,13.999
		c-22.998-5-30.996-11.997-30.996-27.998c0-12.002,5-27.002,12.002-33.999c15-15,3.994-26.001-17.002-19.004
		c-10,4.004-15,20-15,47.002c0,22.998-7.002,55-15.996,71.001c-14.004,28.999-17.002,30-33.008,15
		C3620,2396.001,3595,2390,3565,2390c-30.996,0-55-6.001-67.002-17.002c-17.002-15-17.998-15-17.998,0c0,10,5,17.002,10,17.002
		c5.996,0,10,17.998,10,41.001c0,21.997,5,48.999,10.996,60c5,11.001,12.002,47.998,15,81.997
		c2.002,34.004,8.008,71.001,13.008,82.002s13.994,36.001,18.994,55c10,33.999,10,33.999,17.998,10l8.008-25l5.996,25
		c4.004,13.999,10.996,23.999,15.996,22.998c63.008-10,124.004-13.999,124.004-5.996c0,5-12.002,20-25.996,31.997
		c-24.004,21.001-25,23.999-11.006,38.003c22.002,21.997,59.004,10,79.004-25c22.998-39.004,10-49.004-19.004-15L3729.003,2795
		l16.992-27.998c12.002-21.001,14.004-30,5-41.001c-8.994-11.001-5.996-15,15-20c18.008-5,30-3.003,35,6.001
		c12.002,17.998,11.006,47.998,0,47.998c-18.994,0-22.998,42.002-6.992,58.999c15,15,18.994,15,45.996-1.001
		c17.002-10,32.002-12.998,35-6.997c7.998,11.997,45,11.997,45-1.001c0-5-10.996-12.002-25-16.001c-14.004-2.998-25-7.998-25-11.001
		c0-8.999,24.004-47.998,35-57.998c15-12.998,37.998-92.002,30-105c-2.998-5,0-20,7.998-32.002
		c7.002-12.998,12.998-28.999,12.002-35c-2.002-6.997-2.998-20.996-5-30c-0.996-12.998-2.998-13.999-7.002-3.999
		c-3.994,8.999-10.996,2.002-20.996-20C3900.996,2450,3900,2440,3917.998,2440c29.004,0,2.002-13.999-30.996-15
		c-34.004-2.002-55-35-22.002-35c14.004,0,15-7.998,9.004-56.001c-5-42.998-3.008-58.999,6.992-66.001
		c11.006-7.998,11.006-10.996,1.006-15c-20-7.998,2.998-30,55.996-52.998c59.004-26.001,92.002-26.001,92.002,0c0,11.001,5,20,10,20
		c5.996,0,10-3.999,10-10c0-20,17.998-8.999,24.004,15c5,21.001,8.994,22.998,20,12.998c12.998-12.998,3.994-42.998-18.008-58.999
		c-20-15,17.002-18.999,39.004-5c12.998,8.999,32.998,16.001,42.998,16.001s22.998,5,29.004,11.001
		c7.998,7.998,17.002,7.998,30.996,0c25-13.003,52.002-5,52.002,16.001c0,11.997,12.002,13.999,52.998,12.998
		c72.998-2.998,77.002-2.002,77.002,20c0,11.001,4.004,20,9.004,20c15.996,0,18.994-53.999,5-82.002
		c-8.008-15.996-12.002-27.998-9.004-27.998c17.002,0,45,22.002,45,35c0,17.998,20.996,18.999,72.998,3.999
		c20-5,37.002-16.001,37.002-22.998c0-20,27.002-40,35-26.001c2.998,6.001,10.996,7.998,15.996,5c5-3.999,9.004,6.001,8.008,22.002
		c0,15-3.008,21.997-6.006,15.996c-2.002-6.997-8.994-12.998-15-12.998c-7.002,0-8.994,17.002-5.996,45
		c5.996,48.999,0.996,58.999-22.002,43.999c-10-6.001-10.996-8.999-2.002-8.999c6.006,0,12.002-7.998,11.006-17.002
		c0-10.996-3.008-12.998-6.006-5c-2.002,6.001-10,9.004-15,6.001c-7.998-5-8.994,5-5,28.999c2.998,22.002,1.006,42.002-7.998,54.004
		c-10.996,15-10.996,20.996,2.002,35.996c8.994,9.004,28.994,17.002,45,17.002c17.998,0,27.998,5,27.998,15c0,8.999-9.004,15-25,15
		c-14.004,0-25,3.999-25,10c0,5-7.998,6.001-17.002,2.998c-17.002-6.997-17.002-5-2.002,17.002
		c9.004,13.999,28.008,26.001,43.008,27.998c25,3.003,25.996,6.001,25.996,68.003c0,67.998-7.998,77.998-35.996,41.997
		c-14.004-20-15-20-9.004-2.998c4.004,11.001,7.998,26.001,7.998,32.998c0,11.001,11.006,16.001,29.004,13.003
		c12.002-2.002,8.994,361.001-2.998,376.001c-8.008,8.999-8.008,12.998,0,12.998c5.996,0,10.996,7.002,10.996,16.001
		c0,11.001-5,13.999-15.996,10c-9.004-3.003-18.008-6.001-20-6.001c-10,0-3.008-57.002,10.996-82.998
		c12.998-26.001,12.998-29.004-7.998-50l-21.006-21.001l-5.996,21.997c-7.002,31.001-20.996,32.002-32.002,3.003
		c-7.002-21.001-10-22.002-20.996-8.999C4487.998,2916.001,4465,2920,4435,2903.999c-34.004-16.997-35-16.997-35,2.002
		c0,7.998-4.004,12.998-9.004,10c-5-3.999-21.992-1.001-37.998,5c-15,6.997-47.998,15-72.998,18.999
		c-37.998,6.001-40.996,8.999-22.002,15c12.002,3.999,22.002,12.998,22.002,21.001c0,16.001,50,42.998,67.998,36.997
		c17.998-6.997,15,11.001-8.994,41.001c-29.004,37.002-18.008,43.003,18.994,11.001c45-37.002,59.004-26.001,65,52.998
		c2.998,37.002,7.998,77.002,12.002,89.004c5.996,17.998,2.002,25-17.998,31.997c-14.004,6.001-27.998,18.999-32.002,30
		c-9.004,28.999-25,26.001-25-3.999c0-15-7.002-28.999-17.002-32.998c-25.996-10-28.994-29.004-17.998-87.002l5.996-30l-25,28.999
		c-23.994,28.999-25,28.999-50,13.003c-32.998-22.002-75-22.002-82.998-1.001c-5.996,17.998,22.998,47.998,37.998,38.999
		c4.004-2.998,10-1.001,14.004,5s10.996,7.998,15.996,5c5-3.999,9.004-1.001,9.004,6.001c0,16.001-80,5-90.996-12.002
		c-14.004-23.999-23.008,0-9.004,26.001c10,18.999,10,27.002,0.996,38.999c-6.992,8.003-10,23.999-5.996,36.001
		c4.004,13.999,2.002,20-9.004,20c-20,0-30.996-20-26.992-52.998c0.996-15-1.006-27.002-6.006-26.001
		c-32.998,6.001-37.998-2.002-37.998-65c0-48.999,5-68.999,19.004-85c16.992-18.999,17.998-23.999,5.996-46.001
		c-17.002-32.002-32.002-32.002-60.996,0c-13.008,12.998-27.002,25-31.006,25c-12.998,0-25.996-63.999-15-77.002
		c19.004-25-42.998-13.999-68.994,12.002l-26.006,26.001L3895,3000c5-25,2.998-30-12.002-30s-15-2.002-2.998-10
		c12.002-7.002,12.002-10-4.004-16.001c-12.998-5-23.994,0-35.996,16.001c-14.004,17.998-27.998,23.999-60.996,23.999
		C3742.001,2985,3735,2987.998,3735,3005c0,13.999,9.004,21.001,34.004,26.001c20,3.999,45.996,20,61.992,37.998
		c14.004,17.002,32.002,31.001,38.008,31.001c15.996,0,12.998-30-4.004-36.001c-7.998-3.999-12.998-10-10-13.999
		c7.002-11.001,59.004,1.001,67.998,16.001C3927.001,3073.999,3940,3080,3950,3080c10.996,0,20,5,20,10c0,6.001,5.996,10,12.998,10
		s24.004,13.999,36.006,31.001c17.998,23.999,20,32.998,10.996,38.999c-7.002,3.999-10,15-7.002,23.999
		c4.004,8.999,2.002,16.001-2.998,16.001s-10-18.999-12.002-42.002c-2.998-38.999-5.996-43.999-37.002-53.999
		c-30.996-10-35.996-8.999-61.992,18.999c-16.006,16.001-30,26.001-30,21.001c-1.006-5-2.002-15-3.008-22.998
		c-1.992-23.999-21.992-23.003-32.998,1.001c-8.994,20-5.996,26.997,17.998,47.998c27.002,22.998,41.006,48.999,19.004,35
		c-27.998-17.998-94.004,45-70.996,67.998c12.998,13.003-35,57.002-64.004,58.003c-17.002,0-17.002,1.997,4.004,10
		c13.994,5,30.996,6.997,37.998,5c7.002-3.003,12.998,1.997,12.998,11.001c0,11.997,7.002,13.999,34.004,10
		c25-4.004,35.996-1.001,40,8.999c6.992,18.999,35.996,17.998,51.992-3.003c8.008-10.996,13.008-12.998,14.004-5
		c0,6.001,7.002,12.002,15,12.002s15,5,15,10c0,6.001,12.002,22.998,27.002,37.998l27.002,27.002l-38.008,2.998
		c-23.994,2.002-43.994-1.997-55-11.997c-21.992-20-35-20-50.996-1.001c-14.004,17.002-35,21.001-25,5
		c9.004-13.999-12.998-40-32.998-40c-7.998,0-24.004,7.998-34.004,17.002c-17.002,15-20,15-37.002-4.004
		c-17.998-17.998-27.998-20-117.998-15c-53.994,2.002-105.996,8.003-115,13.003c-22.002,11.997-47.998,11.001-47.998-1.001
		c0-5,7.002-10,15-10c24.004,0,65-22.002,59.004-32.002c-3.008-5-14.004-1.997-25,8.003c-15,12.998-22.002,13.999-33.008,5
		c-7.998-7.002-20-10-25.996-6.001c-20.996,12.998-40-22.002-37.002-68.999c2.002-38.003,0-46.001-12.998-43.999
		c-14.004,2.998-15,10-7.002,72.998c6.006,42.002,19.004,65,37.998,65c12.002,0,19.004,7.002,19.004,18.999
		c0,11.001,5.996,22.002,12.998,23.999c7.998,4.004,7.002,6.001-2.998,6.001c-7.998,0-22.002-3.999-30-8.999
		c-12.998-8.999-12.998-11.001,0-20c12.002-7.998,9.004-10-12.002-10c-17.002,0-32.998,7.998-40,20
		c-13.994,22.002-27.998,26.001-27.998,7.998c0-5.996-7.002-18.999-15-27.998c-15-16.001-10-60,5.996-60
		c23.008,0,6.006-47.002-27.998-77.002c-55.996-50-70.996-42.998-27.998,13.003c25.996,32.998,32.002,58.999,15.996,67.998
		c-11.992,8.003-0.996,58.003,17.002,78.999c14.004,16.001,9.004,17.002-90.996,17.002c-92.002,0-106.006-2.002-110-17.002
		c-4.004-16.997-5-16.997-6.006,0c0,9.004-5,17.002-10.996,17.002c-15,0-10.996-52.002,5-73.999c12.998-17.002,15-17.002,15-3.003
		c0,10,5,14.004,15,11.001c7.998-2.998,30-1.001,49.004,6.001c37.998,12.002,77.998,0,72.998-22.998
		c-1.006-6.001,7.998-13.003,20.996-15c12.002-2.002,22.002-10,22.002-18.003c0-11.001-4.004-11.997-17.998-5
		c-14.004,8.003-22.998,5-37.002-11.001c-17.002-20-17.002-21.997-0.996-33.999c15-10,15-15,5-31.997c-10-16.001-10-23.003,0-36.001
		c6.992-8.003,10-20,5.996-25c-2.998-6.001,2.002-22.002,10.996-36.001c16.006-23.999,16.006-27.002,1.006-42.002
		c-12.998-13.999-22.998-15-51.006-5.996l-35,10.996l26.006-53.999c15-28.999,30-51.001,32.998-48.999
		c4.004,2.002,4.004-8.999,2.002-26.001C3250,2992.002,3255,2970,3264.004,2955c8.994-13.999,15.996-42.002,15-62.998
		c-1.006-20-1.006-66.001,0-101.001c0.996-73.999-7.002-76.001-17.002-3.999c-6.006,42.998-10,47.998-34.004,50.996
		c-20.996,2.002-30-2.998-42.998-25L3169.004,2785l5,33.999c3.994,18.003,5.996,45,5.996,58.003c0,15,5,22.998,12.998,20
		c6.006-2.002,11.006-11.001,9.004-21.001c-4.004-21.001,13.994-20,37.998,1.997c17.998,17.002,19.004,20,4.004,38.003
		c-8.008,10-13.008,12.998-9.004,6.997c4.004-7.998,0-12.998-9.004-12.998c-8.994,0-15.996,7.002-15.996,15s-9.004,18.999-20.996,25
		c-11.006,7.002-25,25-31.006,41.001c-5,16.001-13.994,28.999-20,28.999c-5,0-7.002-2.998-5-7.002
		c9.004-15-12.002-52.998-28.994-52.998c-12.002,0-14.004-5-8.008-17.002c4.004-10,8.008-27.998,8.008-40.996
		c0.996-18.003,5.996-22.002,27.998-20c15,1.997,27.002-1.001,27.998-7.002c0-5-12.002-10-27.002-10c-22.998,0-28.994-5-32.998-30
		c-5.996-37.002-44.004-47.998-52.998-16.001c-2.998,13.003-12.998,21.001-27.002,21.001c-12.998,0-24.004,7.998-27.002,20
		c-2.998,11.001-5.996,20-7.002,20c0,0-22.998-6.001-50.996-12.998c-49.004-13.003-84.004-12.002-85.996,0.996
		c0,4.004-2.002,16.001-5,27.002c-2.002,11.001-4.004,46.001-5,77.998c-1.006,62.002-11.006,73.003-27.002,30
		c-10-25.996-11.006-25-12.002,17.002c-2.002,36.001-2.998,40-9.004,20c-3.994-13.999-10-20-12.998-13.999
		c-12.002,18.999,16.006,58.999,45,61.997c17.998,2.002,27.002,9.004,27.002,21.001c0,8.999,7.002,26.001,15,37.002
		c7.998,10,15,28.999,15,40c0,25,47.998,76.001,62.002,67.998c5.996-3.999,5.996-8.999,0.996-12.998
		c-13.994-10-52.998-63.003-52.998-72.002c0-5,15-8.999,32.998-8.999c27.998,0,36.006,5,50,35c15,31.001,15,35,0,42.998
		c-27.002,16.001,0,21.001,40,7.002c20-7.002,37.002-11.001,37.002-8.999c0,1.001-9.004,18.999-20.996,37.998
		C3005,3315,2977.998,3320,2962.002,3287.998L2950.996,3265v22.002C2950,3298.999,2959.004,3325,2970,3345
		c19.004,33.999,19.004,35,0,22.998c-20-12.998-35.996-5.996-25.996,11.001c11.992,18.999,98.994,8.999,117.998-13.999
		c10-11.001,17.998-17.998,17.998-15c0.996,2.998,4.004,31.001,5.996,62.998l5,57.002H3045c-42.998,0-47.002-2.002-60-33.999
		c-7.998-18.003-20.996-36.001-30-38.999c-22.998-9.004-19.004,20,5,32.998c34.004,17.998,25,40-17.998,40
		c-37.002,0-37.998,0-55-58.999c-17.998-58.999-34.004-76.001-62.002-65c-20.996,7.998-19.004,23.999,2.998,23.999
		c21.006,0,42.998,50,35,80c-5,18.999-15,18.999-278.994,18.999h-275.005l7.002-36.997c3.999-20,11.001-47.002,15-60
		c5-13.003,8.999-35,8.999-50c-1.001-26.001-1.001-26.001-15-8.003c-15,18.999-15,18.999-15-1.997
		c0-12.002-6.001-22.002-13.999-22.002c-8.003,0-21.001-2.998-30-6.001c-11.001-3.999-20,3.003-28.999,25
		c-14.004,33.003-26.001,32.002-28.003-2.998c0-15-1.997-17.002-6.001-6.001c-3.999,7.998-11.997,21.001-20,27.998
		c-16.997,18.003-16.997,36.001,2.002,29.004c10-4.004,16.001,2.998,20,25.996c12.998,78.003,12.002,82.002-22.002,85
		c-25.996,3.003-31.997-0.996-35.996-20l-4.004-22.998l-7.998,22.998c-8.999,28.003-32.998,29.004-37.002,0
		c-1.997-11.997-10-23.999-17.998-25.996c-12.998-5-12.998-3.003-2.002,10.996c15,18.003,8.003,37.002-12.998,37.002
		c-22.998,0-25-27.998-3.999-53.999l20-26.001H2060c-12.002,0-17.998,5-15,10c2.998,6.001,2.998,10-2.002,10
		c-3.999,0-18.999-17.998-31.997-40c-13.999-22.002-31.001-37.998-41.001-37.002c-21.001,1.001-22.002,27.002-1.001,28.003
		c8.999,0,11.001,2.998,5,5c-12.998,5-7.998,33.999,12.002,72.998c6.997,13.999,11.001,28.003,6.997,31.001
		c-2.998,2.998-7.998-1.001-10-7.002c-5-15-52.998-17.998-52.998-2.998c0,6.001-8.999,6.001-26.001,0
		c-13.999-6.001-28.999-7.998-33.999-5c-3.999,2.998-13.999-2.998-21.001-11.001c-11.997-15-10-16.001,23.003-11.997
		c25.996,2.998,38.999,0,42.998-10c7.998-20-66.001-8.003-81.001,12.998c-6.001,7.998-16.001,15-22.998,15
		c-6.001,0-11.001,5-11.001,10c0,17.002-110,12.002-116.001-5c-3.999-7.998-11.997-15-18.999-15s-17.998,7.002-25,15
		c-16.001,18.999-70,20-70,1.001c0-8.003-2.998-21.001-6.001-28.999c-3.999-11.001,1.001-13.003,21.001-9.004
		c23.999,4.004,26.001,2.002,22.998-23.999c-1.997-23.999-7.998-28.999-31.997-30c-25-1.001-66.001,25-66.001,41.001
		c0,2.998,0,15,0,27.998c0,21.001-3.999,23.003-31.001,19.004c-21.997-3.003-30-1.001-25,6.997
		c3.999,6.001,3.003,11.001-2.998,11.001c-5,0-12.002-3.999-15-8.999c-3.003-5-15-7.002-25-3.999c-10,2.998-22.002,0-25-6.001
		c-10-16.001-52.002-13.003-66.001,3.999c-17.998,22.002-28.999,17.998-36.001-12.002c-10-42.998-15-45.996-31.001-23.999
		c-17.998,27.002-42.998,27.002-42.998,0c0-11.001-3.999-17.998-8.999-15c-10,7.002-22.002,46.001-12.002,43.999
		c18.003-1.997,31.001,3.003,31.001,12.002c0,6.001-30,10-70,10c-56.001,0-70-2.998-70-15c0-7.998-3.999-15-10-15
		c-5,0-10,7.998-10,17.998c-1.001,16.001-1.001,16.001-10,0c-11.001-17.998-37.998-17.998-48.999,0
		C996.001,3467.002,988.999,3466.001,977.002,3452.002z M1115,3326.001c10,3.999,12.002,0,7.998-15
		C1120,3300,1113.999,3292.002,1110,3295c-5,2.998-11.001,1.001-15-5c-7.002-12.002,52.002-50,77.998-50
		c10,0,16.001-3.999,12.002-10c-2.998-5-27.002-8.999-52.002-7.998c-53.999,0.996-75.996-19.004-92.998-83.003
		c-12.002-43.999-32.998-43.999-23.999-1.001c3.999,20,0,32.002-12.002,43.003c-11.001,7.998-15,8.999-10,1.997
		c3.999-6.997,3.003-12.998-2.998-12.998c-17.002,0-22.002,18.999-11.001,40c12.998,25,62.998,47.002,67.998,31.001
		c2.002-6.001,8.003-8.999,13.003-5c12.998,7.998,11.001,31.001-3.003,31.997c-43.999,3.003-57.998,8.003-61.997,19.004
		c-8.003,18.999,8.999,23.999,40,12.998c15-6.001,30-7.998,32.998-3.999c3.003,3.999,0,8.999-6.001,11.001
		c-13.999,5-17.998,23.999-5,21.997c21.001-3.999,32.002,3.003,33.003,18.999c1.001,12.002,2.998,10,6.001-5
		C1100,3330,1106.001,3322.998,1115,3326.001z M2437.002,3265c30.996-7.002,80.996-52.002,98.994-88.999l15-31.001l-20,25
		C2520,3183.999,2510,3197.002,2510,3200s-10,11.001-22.002,18.999c-12.998,7.002-20,10-15,5C2485,3211.001,2422.002,3190,2370,3190
		s-115,21.001-102.998,33.999c5,5-2.002,3.003-14.004-5c-10.996-6.997-30-28.999-41.997-47.998c-11.001-20-21.001-31.001-21.001-25
		c0,16.997,42.002,75,71.001,96.997C2302.998,3273.999,2367.002,3282.002,2437.002,3265z M997.002,3116.001
		c-3.003-7.002,0.996-38.003,7.998-68.999c11.001-47.002,11.001-57.002-1.001-61.001C996.001,2982.998,990,2985,990,2990
		c0,13.999-17.998,12.002-33.999-2.002c-8.999-8.999-11.001-20.996-5-40c8.999-31.997-8.003-50-23.003-23.999
		s-36.997,18.999-35-11.001c2.002-35-30.996-42.998-56.997-15c-16.001,19.004-16.001,20,13.999,33.003
		c18.999,8.999,27.998,18.999,25,27.998c-7.002,18.003,12.998,41.001,37.002,41.001c25,0,35.996,30,15,42.002
		c-20,10.996-21.001,21.997-4.004,40c7.002,6.997,16.001,20.996,20,30.996c9.004,24.004,30,11.001,22.002-13.999
		c-3.999-11.001-2.002-18.999,3.999-18.999S980,3098.999,980,3122.998c1.001,34.004,2.998,39.004,11.001,24.004
		C997.002,3137.002,998.999,3122.998,997.002,3116.001z M4060,2892.998v-25.996l22.998,20.996
		c14.004,13.003,36.006,22.002,55,22.002c35,0,37.998-10,32.998-90c-1.992-38.999-38.994-80-70.996-80c-10,0-22.002-3.999-25-10
		c-4.004-6.001,5-10,19.004-10c13.994,0,25.996-3.999,25.996-10c0-5,10.996-10,25-10c25,0,25-1.001,10-30
		c-15.996-32.002-49.004-55-65-45c-5.996,3.999-10-7.002-10-22.998c0-24.004,4.004-30,22.998-30c12.002,0,31.006-2.002,42.002-4.004
		c17.998-2.998,20,2.002,17.002,45c-2.998,42.002-1.006,47.002,15.996,47.002c20,0,52.002-23.999,52.002-37.998
		c0-18.003-40.996-72.002-55-72.002c-20,0-19.004-10,2.998-26.001c14.004-11.001,14.004-12.998,2.002-13.999
		c-7.998,0-20.996-8.999-27.998-20c-7.002-12.002-17.002-17.998-22.002-15c-5.996,3.999-7.998,10-5.996,13.999
		c2.998,3.999-4.004,12.002-14.004,18.999c-22.998,14.004-30-0.996-19.004-37.998c7.002-25,7.002-25,8.008-2.002
		c0.996,27.002,20.996,20,20.996-6.997c0-13.999,5.996-17.002,30-13.003c17.002,2.002,30.996,0,30.996-3.999
		c4.004-22.998,4.004-205,1.006-192.998c-2.998,7.998-11.006,21.997-20,31.001c-10,11.997-12.998,30-9.004,56.997
		c5,38.003,4.004,40-23.994,38.999C4095,2377.002,4092.998,2370,4120,2345c10.996-10,20-22.998,20-28.999s-12.002,1.997-25,16.997
		c-15.996,18.003-25,40-25,63.003c0,18.999-4.004,33.999-10,33.999c-5,0-10-5-10-11.001c0-7.998-5-7.998-15,1.001
		c-12.002,10-17.002,7.998-25-11.001c-7.998-20-9.004-16.997-4.004,16.001c3.008,22.002,13.008,57.002,21.006,77.998
		c15.996,36.001,15.996,38.003-5,53.003c-17.998,11.997-22.002,25-22.002,65c0,26.997,4.004,48.999,9.004,48.999
		c11.992,0,20.996,66.001,13.994,100c-3.994,23.999-7.998,27.002-22.002,17.998c-13.994-8.999-23.994-3.999-52.998,23.003
		c-18.994,18.999-48.994,41.997-65.996,51.001c-31.006,15.996-47.002,55.996-19.004,45c7.998-3.003,20,2.998,27.998,13.999
		c7.002,10,17.002,18.999,21.006,18.999c12.002,0,8.994-35-4.004-47.998c-8.994-9.004-7.998-12.002,5-12.002
		c9.004,0,17.002-5,17.002-12.002c0-5.996,7.998-2.998,20,7.002c10.996,10,27.998,15,39.004,12.002c20-5,20-4.004,5.996,30
		c-20,46.997-20,47.998,15,22.998C4050,2926.001,4060,2910,4060,2892.998z M3504.003,2731.001
		c15-17.002,16.992-31.001,10.996-93.003c-4.004-40-10.996-81.997-15-92.998s-10.996-45-15-75s-12.998-63.999-20.996-75
		c-7.002-11.001-16.006-38.999-20-62.998c-10-66.001-28.008-65-21.006,0.996c2.998,33.003,2.002,57.002-3.994,57.002
		c-5,0-9.004-11.001-9.004-25c0-17.998-5-25-19.004-25c-17.998,0-18.994,6.001-15,57.998c3.008,31.001,6.006,67.002,8.008,80
		c1.992,12.002,0,22.002-4.004,22.002c-2.998,0-7.002,20-9.004,43.999c-0.996,37.002,1.006,43.999,19.004,48.999
		c10.996,3.003,20,9.004,19.004,14.004c-4.004,21.997,1.992,31.997,16.992,25.996c11.006-3.999,12.002-8.999,5-15.996
		c-21.992-22.002-11.992-36.001,24.004-34.004c30.996,2.002,35,5,35.996,32.002c1.006,17.002,2.002,37.002,3.008,45
		c0.996,7.998-4.004,22.002-11.006,30c-12.002,16.001-13.994,60-2.002,60C3484.003,2750,3495,2741.001,3504.003,2731.001z
		 M1187.998,2672.998c-3.999-11.997,35-52.998,49.004-52.998c31.997,0,92.998-26.001,92.998-40c0-12.002,2.002-12.998,8.999-1.001
		C1352.002,2600,1410,2556.001,1410,2525c0-12.998,5-27.002,10-30c6.001-3.999,10,7.998,10,28.999c0,30,3.999,36.001,21.001,36.001
		c27.998,0,63.999-31.001,63.999-55c0-12.998,6.001-20,17.998-18.999C1545,2487.002,1550,2480,1550,2458.999
		c0-26.001-3.999-28.999-40-35c-22.998-3.999-45-13.999-50-22.998c-7.002-13.999-1.001-18.999,36.001-30
		c47.998-13.999,57.998-31.001,18.999-31.001c-32.002,0-75,27.002-76.001,48.999c0,10-1.997,11.001-6.001,3.999
		c-1.997-6.997-11.997-12.998-20-12.998c-10,0-5.996-7.998,13.003-22.002c16.001-12.998,33.999-21.997,40-20
		c6.997,1.001,15-1.997,18.999-7.998c2.998-5-1.001-10-8.999-10c-22.002,0-10-60,15-78.999c15-11.001,18.999-26.001,18.999-80
		c0-36.001-5-73.003-10-81.001c-7.998-12.998-10-12.998-10,2.002c0,10.996-5,15-13.999,11.997c-8.003-2.998-20,1.001-27.002,8.999
		c-11.997,12.002-15,12.002-25-0.996c-8.999-13.003-11.001-7.002-6.997,26.997c5.996,52.002-11.001,48.999-21.001-3.999
		c-5-22.998-13.003-35-23.003-35c-8.999,0-20.996-7.002-27.998-16.001c-8.999-12.998-16.001-13.999-32.998-5
		c-11.001,6.001-21.001,18.999-21.001,28.999c-1.001,9.004-3.999,34.004-7.002,55c-2.998,21.001-1.997,43.003,3.999,50
		c7.002,8.003,7.002,17.002-1.997,29.004c-11.001,15-13.003,15-25-4.004c-7.002-10.996-8.999-22.998-3.999-26.997
		c5-3.003,10-25,11.997-48.003c2.002-41.997,2.002-42.998-27.998-42.998c-22.002,0-31.001,5-32.002,17.998
		c-1.001,9.004-3.999,4.004-7.998-11.997c-3.003-16.001-15-33.999-26.001-40s-22.002-12.002-23.999-13.003
		c-2.002-1.997,1.997-8.999,8.999-16.997c8.999-12.002,8.999-21.001-1.001-46.001c-18.999-42.002-42.998-50-33.999-11.001
		c7.002,32.002-2.998,45-25,30c-10-6.001-11.001-8.999-2.002-8.999c6.001,0,12.002-7.002,12.002-15c0-17.002-25-20-35-5
		c-2.998,6.001-15,10-26.001,10c-16.001,0-17.998,2.998-8.999,18.999c7.998,16.001,5,21.001-22.998,31.001
		c-45,17.002-17.002,23.999,45,11.001c35-8.003,55-8.003,61.997-1.001c7.002,7.002,7.002,10-1.001,10c-5.996,0-10,18.999-8.999,45
		c0,25,5,42.998,11.001,41.001c6.001-2.002,8.999-15,7.002-28.999c-1.001-14.004,1.997-28.003,7.998-32.002
		c12.998-7.998,47.002,25,33.999,32.998c-36.997,25-50,190-32.998,416.001c6.001,86.001,11.997,111.001,26.001,122.002
		C1187.998,2682.002,1191.001,2682.998,1187.998,2672.998z M1640,2503.999c0-11.997,3.999-25,8.999-27.998
		c5-3.999,12.002-23.999,16.001-45c7.002-43.999-7.002-81.001-31.001-81.001c-7.998,0-11.997,5-8.999,10
		c2.998,6.001,1.001,11.001-3.999,11.001c-12.002,1.997-26.001,5-38.003,8.999c-5,1.001-10.996,2.002-15,1.001
		c-15-2.002-7.998,108.999,7.002,132.998C1596.001,2545,1640,2538.999,1640,2503.999z M1837.998,2507.002
		c6.001-5,12.002-7.002,12.002-4.004c0,3.003,12.002-0.996,27.002-7.998c30.996-16.001,60-2.002,32.998,15
		c-12.998,7.998-12.002,10,2.998,10c12.002,0,17.002-7.998,17.002-30c0-17.002-5-36.001-10-42.998
		c-6.001-7.002-17.002-21.001-25-32.002c-12.002-16.001-13.999-16.001-8.999-2.002c2.998,9.004,1.997,17.002-2.002,17.002
		c-17.998,0-32.998-16.001-40-43.999c-6.997-28.003-7.998-28.003-60-21.001c-57.998,7.002-60,5-42.998-27.002
		c11.001-20.996,11.997-20.996,25-2.998c7.998,10,13.999,15,13.999,8.999c0-5-7.002-16.997-15-27.998
		c-23.999-31.001-42.002-13.003-50,51.001c-3.999,31.997-13.999,65.996-22.002,75c-17.998,20-8.999,53.999,18.003,68.999
		c16.001,7.998,22.998,6.997,32.998-6.001c11.001-15,13.003-15,30,3.999C1792.002,2527.998,1811.001,2527.998,1837.998,2507.002z
		 M1960,1920c27.998-27.998,25-82.998-7.998-150c-21.001-42.002-33.003-55.996-52.002-57.998
		c-37.002-4.004-67.998,33.994-76.001,90.996c-7.998,54.004,8.999,87.002,58.999,117.002C1922.998,1945,1935,1945,1960,1920z
		 M2527.998,990.996L2570,947.002l-7.002-96.006c-7.002-100.996-15-118.994-57.998-126.992c-26.001-4.004-35,10-12.002,18.994
		c9.004,4.004,9.004,6.006,0,6.006c-5.996,0.996-18.999-8.008-26.997-20c-18.999-28.008-36.001-16.006-27.002,18.994
		c5,19.004,13.999,27.002,28.999,27.002c57.998,0.996,49.004,45-13.999,65C2425,850,2420,855.996,2420,882.998
		c0,17.998-2.998,49.004-6.001,70c-5,24.004-2.998,37.002,5,37.002C2425,990,2430,972.998,2430,950c0-22.002,3.999-40,10-40
		c16.001,0,22.998,50,11.001,75.996C2422.002,1050.996,2467.002,1054.004,2527.998,990.996z"/>
	<path d="M4537.001,3457.002c-2.998-7.002,3.994-24.004,13.994-38.003c27.002-33.999,23.008-56.001-10.996-73.999
		c-30-15-30.996-17.998-34.004-92.002c-0.996-23.999,50-21.997,87.002,2.002c32.998,21.001,37.002,63.999,7.002,82.998
		c-10.996,7.002-20,21.001-20,32.002s9.004,25,20,32.002c12.002,7.998,20,23.999,20,40c0,25.996-2.998,27.998-39.004,27.998
		C4557.998,3470,4540,3465,4537.001,3457.002z"/>
	<path d="M4552.001,3217.002c-22.002-7.002-31.006-15-27.002-25c2.998-8.003-2.998-16.001-15-19.004
		c-10.996-2.998-20-10.996-20-18.999c0-10,5.996-11.001,25.996-3.999c35,13.999,57.002,12.998,48.008-2.002
		c-5-7.998,0-8.999,13.994-5.996c27.002,6.997,29.004-8.003,2.998-22.002c-26.992-13.999-43.994-12.998-37.998,3.999
		c6.006,13.999-2.998,15-32.998,3.003c-44.004-16.001-54.004-17.002-62.002-5c-3.994,7.998-7.002-8.003-7.002-37.002
		c1.006-43.999,2.002-47.002,10-23.999c6.006,15,19.004,28.999,29.004,31.997c25.996,7.002,34.004-6.997,15-22.998
		c-7.998-7.002-15-27.998-15-47.998c0-34.004,0-35,20-17.002c10.996,10,20,23.999,20,32.002c0,8.999,7.002,11.997,25,6.997
		c15.996-3.999,25-1.997,25,5c0,7.002,10,22.002,22.998,35C4624.003,3115,4629.003,3190,4599.003,3190
		c-24.004,0-24.004,8.999-1.006,26.001C4619.003,3232.998,4600.996,3232.998,4552.001,3217.002z"/>
	<path d="M2882.002,3090c-16.006-32.998-17.002-40-5-40c7.998,0,25.996-8.999,38.994-18.999c23.008-18.003,23.008-20,7.002-28.999
		c-12.998-8.003-20-6.001-30,5.996c-10,15-10.996,14.004-5.996-5.996c2.998-14.004,10.996-21.001,18.994-18.003
		c8.008,3.003,15,1.001,15-3.999c1.006-6.001,2.002-16.001,3.008-22.002C2925,2951.001,2935,2945,2947.998,2945
		c26.006-1.001,42.998-21.001,35-42.998c-12.998-33.003,37.002,10,52.002,45c17.998,43.999,19.004,47.998,0.996,33.999
		c-10.996-8.999-15.996-5-26.992,21.001c-8.008,17.998-14.004,35-15,37.998c-13.008,42.998-17.002,51.001-25,38.999
		c-5-7.998-11.006-1.001-17.002,22.002c-7.998,25-10,27.998-11.006,11.997c-0.996-13.999-6.992-22.998-16.992-22.998
		c-11.006,0-14.004,6.001-9.004,20C2925.996,3146.001,2902.998,3131.001,2882.002,3090z"/>
	<path d="M417.002,2953.999c-14.004-7.998-29.004-8.999-45-2.998c-31.001,11.997-65,11.997-57.002,0
		c7.998-13.003-30-32.002-57.998-30c-48.003,3.999-68.003-2.002-76.001-23.003c-5-12.998-21.001-31.997-35-41.997
		s-26.001-25-26.001-32.002c0-17.998,22.002-22.998,40-10c22.998,18.999,117.998,38.999,146.001,32.002c15-3.999,31.997-2.002,40,5
		c7.998,6.001,26.001,8.999,41.001,6.001c15-3.003,37.998-1.001,50.996,3.999c15,6.001,21.001,5,17.002-1.001
		c-8.999-15,12.998-12.002,38.999,5c13.003,8.999,32.002,17.002,42.002,18.999c11.001,3.003,30,8.999,43.999,13.999l25,10
		L576.001,2915c-17.002,5-38.999,17.998-50,30C502.998,2970,455,2972.998,417.002,2953.999z"/>
	<path d="M3864.003,1764.004c-16.006-72.002-28.008-115-54.004-194.004c-15-47.002-30.996-97.998-35-114.004
		c-2.998-15.996-19.004-40.996-34.004-55c-15-13.994-35-50.996-45-80.996s-21.992-60-26.992-65.996
		c-16.006-19.004-70-198.008-67.002-223.008c5-40-57.002-81.992-124.004-83.994c-37.002-1.006-60-7.998-72.002-19.004
		c-15.996-15.996-27.998-20.996-87.998-32.998c-10-2.002-17.998,0.996-17.998,5.996s-17.998,12.002-40,15
		c-22.002,4.004-42.998,11.006-45.996,15c-8.008,13.008,43.994,11.006,81.992-2.998c39.004-13.994,83.008,1.006,91.006,31.006
		c2.998,13.994,20.996,21.992,65.996,30.996c35,5.996,72.002,20.996,84.004,32.002c23.994,22.002,67.002,128.994,77.002,187.998
		c5.996,37.002,50,147.002,75.996,190c9.004,14.004,20.996,34.004,27.998,45c35,59.004,52.998,100,45,102.002
		c-5.996,2.002-5.996,25-2.002,55.996c4.004,27.998,8.008,67.998,8.008,87.002c0.996,55.996-15,15-28.008-72.998
		C3735,1574.004,3725,1530,3720,1520c-5.996-10-10-27.998-10-40s-4.004-17.998-10-15c-5,2.998-10-2.998-10-14.004
		c0-11.992-2.998-20.996-7.002-21.992c-22.002-2.002-50.996-8.008-72.998-15c-22.998-7.002-24.004-6.006-10,10
		c7.998,10,24.004,21.992,37.002,26.992c27.002,10,30,27.002,7.002,36.006c-9.004,2.998-24.004-2.998-35-16.006
		c-11.006-11.992-38.008-28.994-60-37.998c-22.002-7.998-47.002-27.998-56.006-43.994c-10-16.006-20.996-29.004-25.996-29.004
		s-4.004-7.002,3.994-15.996c7.002-9.004,26.006-15,48.008-14.004c51.992,2.998,55,2.002,40.996-15
		c-17.002-20.996-75.996-19.004-97.998,2.998C3435,1345,3370.996,1352.002,3315,1335c-27.002-7.998-52.002-12.002-57.002-9.004
		c-7.002,5-12.002-10-8.994-28.994c0.996-5-3.008-6.006-9.004-2.002c-5,2.998-10,12.998-10,20c0,17.002-35.996,37.998-50.996,29.004
		c-6.006-3.008-15-17.002-20-31.006c-9.004-25-11.006-25-77.002-17.002c-37.002,4.004-80,9.004-97.002,10
		c-59.004,7.002-100,17.002-120,30c-40,29.004-60,18.008-79.004-41.992c-8.994-30-18.994-64.004-20.996-75
		c-2.002-11.006-7.002-29.004-10-39.004c-7.002-20.996,14.004-37.998,25-20c12.002,20,20-15.996,20-92.998
		c-0.996-62.998-2.002-70-14.004-54.004c-13.994,17.998-15,17.002-20.996-2.002c-7.998-26.992-25-16.992-25,15
		c0,23.008-25,84.004-34.004,84.004c-1.992,0,1.006-17.002,6.006-37.002c17.002-62.998,20.996-123.994,8.994-135.996
		C2715,930.996,2710,919.004,2710,910c0-12.998,17.998-19.004,87.998-27.998c47.998-6.006,102.002-15,121.006-17.998
		c41.992-8.008,56.992,10.996,35,43.994C2942.998,925,2942.002,935,2950,950.996c17.998,33.008,42.998,19.004,60-32.998
		c7.998-25.996,22.002-50,30-53.994c7.998-3.008,50.996-5,95.996-5C3185,860,3230,855,3250,845.996
		c22.998-8.994,42.998-10.996,69.004-3.994c20,3.994,70,15,110.996,22.002c72.998,13.994,75.996,13.994,97.998-7.002
		c27.998-26.006,35-27.002,217.002-27.002c172.998-0.996,222.002,4.004,244.004,24.004c10,8.994,23.994,15.996,32.998,15.996
		c7.998,0,35.996,15.996,62.002,35.996c52.998,40,150.996,94.004,171.992,94.004c8.008,0,14.004,7.002,14.004,15.996
		c0,8.008-5,12.002-10.996,9.004c-6.006-4.004-20,2.002-32.002,12.002c-12.002,10.996-30,22.998-40,25.996
		c-10,4.004-15,12.002-12.002,17.002c4.004,5.996-9.004,25.996-29.004,45.996c-61.992,62.002-85,94.004-78.994,110
		c2.998,8.008-10,34.004-31.006,61.006c-20,25-35.996,50-35.996,55c0,3.994-7.002,7.998-15,7.998s-15-4.004-15-10
		c0-5,5-10,10.996-10c5,0,8.008-4.004,4.004-10c-2.998-5,2.998-17.998,15-30c20-20,27.002-50,12.002-50
		c-5,0-12.998,10-19.004,22.002c-5,12.998-32.002,33.994-58.994,47.998c-73.008,37.002-89.004,75.996-87.002,215
		c0,60.996,7.998,140.996,15.996,180c9.004,37.998,14.004,70.996,12.002,74.004
		C3872.998,1790.996,3867.998,1779.004,3864.003,1764.004z"/>
	<path d="M2627.998,887.998C2619.004,880.996,2610,855,2607.002,830s-10-85-16.006-135C2585,645.996,2577.998,595,2575,582.998
		c-5.996-23.994,17.002-32.998,30-12.998c2.998,5.996,20.996,9.004,37.998,9.004c20-1.006,24.004-3.008,12.002-6.006
		c-35-7.002-65-25.996-65-40c0-10,5-10.996,17.998-3.994c10,5.996,29.004,6.992,40,3.994c44.004-10.996,47.998,5,44.004,179.004
		c-2.002,137.998-5,165-19.004,175.996c-8.994,6.006-20,12.002-22.998,12.002S2637.002,894.004,2627.998,887.998z"/>
	<path d="M3710,774.004v-36.006l-35,31.006c-29.004,25-45,30.996-80,30.996h-45v-97.998c0-90,2.002-100,22.998-120
		C3609.003,549.004,3620,554.004,3620,605c0,45.996,14.004,60,25,25.996c15.996-50.996,75-93.994,75-53.994c0,15,0.996,15,17.998,0
		c30-27.998,42.002-20,42.002,25.996c0,22.998,5,49.004,10,57.002c7.002,10.996,10,7.002,10-17.998c0-22.998,7.998-40,27.998-57.002
		C3860,557.002,3880,552.998,3880,575.996c0,15,2.002,15,25,0c30.996-20,45-20,45,0c0,14.004,2.002,14.004,22.002,0
		c38.994-26.992,47.998-20,48.994,37.002c1.006,31.006,4.004,40,6.006,22.998c5-30.996,47.998-75,75.996-75.996
		C4115,560,4120,567.998,4120,585.996v26.006l34.004-26.006C4220.996,535,4290,560,4290,635c0,34.004-20.996,59.004-80,94.004
		c-44.004,25.996-70,25.996-104.004,0l-25.996-20L4049.003,730c-20,15-39.004,20-57.002,17.002
		c-19.004-4.004-36.006,2.998-62.998,23.994c-20,16.006-42.002,29.004-48.008,29.004c-22.998,0-8.994-27.998,26.006-52.998
		c20.996-15,32.998-27.002,27.002-27.002c-7.002,0-17.002,7.002-24.004,15c-20.996,25-40,17.998-40-15v-30l-44.004,32.998
		c-25,17.002-45,37.002-45,44.004c-0.996,13.994-40,42.998-57.998,42.998C3715,810,3710,797.002,3710,774.004z"/>
	<path d="M2880,785.996c0-30,12.998-45.996,35.996-45.996c23.008,0,24.004-2.998,24.004-67.002
		c0-80.996,7.998-112.998,25.996-112.998c11.006,0,14.004,20,14.004,90c0,80.996,2.002,90,17.998,90
		c14.004,0,26.006-17.998,45-65.996l26.006-66.006L3045.996,585c-12.998-12.002-21.992-32.998-21.992-45.996
		c0.996-18.008-5-25-23.008-27.002c-15-2.002-27.998,2.998-32.998,12.002C2957.002,544.004,2940,545,2940,525c0-10-10-15-29.004-15
		c-26.992,0-28.994-2.002-21.992-27.002c6.992-27.002,10-27.998,77.998-30.996C3015,450,3050.996,454.004,3075,464.004
		c25.996,10.996,42.002,12.998,55,5.996c10-5.996,25.996-10,34.004-10c25,0-2.002,49.004-34.004,62.998L3102.998,535l32.998,80
		l33.008,80l0.996-82.002c0-55.996,5-93.994,17.002-117.998c15.996-34.004,17.998-35,77.998-35c34.004,0,65,2.998,67.998,5.996
		c4.004,4.004-0.996,20-10,35c-12.998,22.002-27.002,30-60,35c-55.996,8.008-55.996,29.004-0.996,29.004
		c37.998,0,45,4.004,58.994,32.002l16.006,32.002l22.002-30c27.998-37.002,57.998-49.004,92.998-37.002
		c30.996,10.996,52.998,57.002,42.998,90C3484.003,687.998,3419.003,750,3392.001,750c-14.004,0-36.006-12.998-52.002-30l-27.998-30
		l-20,27.002c-17.002,23.994-27.998,27.998-71.006,28.994c-45,1.006-50.996-1.992-51.992-20c0-20-1.006-20-11.006,2.002
		c-17.002,35-38.994,22.002-57.002-30.996l-16.992-49.004l-21.006,54.004c-12.002,28.994-23.994,62.998-27.998,75.996
		c-5.996,20-12.002,22.002-80.996,22.002C2897.002,800,2880,797.002,2880,785.996z"/>
</g>
</svg>
